<svg width="32px" height="17px" viewBox="0 0 32 17" fill="none" xmlns="http://www.w3.org/2000/svg">
<circle r="8.5" transform="matrix(-1 0 0 1 23.5 8.5)" fill="#E0DDFF"/>
<mask id="mask0_0_1" style="mask-type:alpha" maskUnits="userSpaceOnUse" x="15" y="0" width="17" height="17">
<circle r="8.5" transform="matrix(-1 0 0 1 23.5 8.5)" fill="#FFEDEF"/>
</mask>
<g mask="url(#mask0_0_1)">
<path d="M20.8579 17.025C21.5021 16.1302 22.0062 13.953 22.0658 13.0881L25.1303 11.7684L26.4053 17.025H20.8579Z" fill="#FC909F" stroke="black" stroke-width="0.178947"/>
<mask id="mask1_0_1" style="mask-type:alpha" maskUnits="userSpaceOnUse" x="20" y="11" width="7" height="7">
<path d="M20.8579 17.025C21.5021 16.1302 22.0062 13.953 22.0658 13.0881L25.1303 11.7684L26.4053 17.025H20.8579Z" fill="#FFEDEF"/>
</mask>
<g mask="url(#mask1_0_1)">
<ellipse rx="2.63947" ry="2.41579" transform="matrix(-1 0 0 1 22.4264 11.3184)" fill="black"/>
</g>
<g clip-path="url(#clip0_0_1)">
<path d="M21.0845 16.2171C21.7287 15.3224 22.2327 13.5926 22.2924 12.7277L25.3568 11.4079L26.6318 16.2171H21.0845Z" fill="#F9C9B6" stroke="black" stroke-width="0.178947"/>
<mask id="mask2_0_1" style="mask-type:alpha" maskUnits="userSpaceOnUse" x="21" y="11" width="6" height="6">
<path d="M21.0845 16.6645C21.7287 15.7698 22.2327 13.5926 22.2924 12.7277L25.3568 11.4079L26.6318 16.6645H21.0845Z" fill="#AC6651"/>
</mask>
<g mask="url(#mask2_0_1)">
<g style="mix-blend-mode:multiply">
<ellipse rx="2.63947" ry="2.41579" transform="matrix(-1 0 0 1 22.4269 11.3184)" fill="black"/>
</g>
</g>
<mask id="path-9-inside-1_0_1" fill="white">
<path fill-rule="evenodd" clip-rule="evenodd" d="M19.7473 8.67535C19.7485 8.67014 19.7497 8.66494 19.751 8.65973C19.7522 8.65453 19.7535 8.64933 19.7547 8.64414L20.4882 5.58261C20.489 5.57956 20.4897 5.57651 20.4904 5.57346C20.4912 5.57041 20.4919 5.56736 20.4926 5.56432L20.4959 5.55078L20.4959 5.5508C20.9531 3.69669 22.822 2.55664 24.6819 3.00225C26.5418 3.44787 27.6912 5.31109 27.2585 7.17105L27.2586 7.17107L26.4984 10.3437L26.4978 10.3436C26.0235 12.1735 24.1684 13.2936 22.3222 12.8512C20.476 12.4089 19.3298 10.5698 19.7363 8.72356L19.7357 8.72343L19.7473 8.67535Z"/>
</mask>
<path fill-rule="evenodd" clip-rule="evenodd" d="M19.7473 8.67535C19.7485 8.67014 19.7497 8.66494 19.751 8.65973C19.7522 8.65453 19.7535 8.64933 19.7547 8.64414L20.4882 5.58261C20.489 5.57956 20.4897 5.57651 20.4904 5.57346C20.4912 5.57041 20.4919 5.56736 20.4926 5.56432L20.4959 5.55078L20.4959 5.5508C20.9531 3.69669 22.822 2.55664 24.6819 3.00225C26.5418 3.44787 27.6912 5.31109 27.2585 7.17105L27.2586 7.17107L26.4984 10.3437L26.4978 10.3436C26.0235 12.1735 24.1684 13.2936 22.3222 12.8512C20.476 12.4089 19.3298 10.5698 19.7363 8.72356L19.7357 8.72343L19.7473 8.67535Z" fill="#F9C9B6"/>
<path d="M19.7473 8.67535L19.9215 8.71626L19.9213 8.71704L19.7473 8.67535ZM19.751 8.65973L19.5769 8.61804L19.5769 8.61803L19.751 8.65973ZM19.7547 8.64414L19.9288 8.68583L19.9286 8.68662L19.7547 8.64414ZM20.4882 5.58261L20.6624 5.62383L20.6623 5.6243L20.4882 5.58261ZM20.4904 5.57346L20.3164 5.53177L20.3164 5.53177L20.4904 5.57346ZM20.4926 5.56432L20.6667 5.60601L20.6665 5.60647L20.4926 5.56432ZM20.4959 5.55078L20.3218 5.50909L20.3636 5.33493L20.5377 5.3768L20.4959 5.55078ZM20.4959 5.5508L20.6697 5.59364L20.6271 5.76638L20.4541 5.72479L20.4959 5.5508ZM24.6819 3.00225L24.6402 3.17628L24.6819 3.00225ZM27.2585 7.17105L27.2172 7.34518L27.0438 7.3041L27.0842 7.1305L27.2585 7.17105ZM27.2586 7.17107L27.2998 6.99694L27.4744 7.03828L27.4326 7.21276L27.2586 7.17107ZM26.4984 10.3437L26.6724 10.3854L26.6308 10.5594L26.4567 10.5177L26.4984 10.3437ZM26.4978 10.3436L26.3246 10.2987L26.3687 10.1286L26.5395 10.1695L26.4978 10.3436ZM22.3222 12.8512L22.2805 13.0252L22.2805 13.0252L22.3222 12.8512ZM19.7363 8.72356L19.778 8.54955L19.9488 8.59051L19.911 8.76203L19.7363 8.72356ZM19.7357 8.72343L19.694 8.89744L19.52 8.85571L19.5617 8.68173L19.7357 8.72343ZM19.573 8.63444C19.5743 8.62897 19.5756 8.6235 19.5769 8.61804L19.925 8.70143C19.9238 8.70637 19.9226 8.71131 19.9215 8.71626L19.573 8.63444ZM19.5769 8.61803C19.5782 8.61258 19.5796 8.60712 19.5809 8.60166L19.9286 8.68662C19.9274 8.69154 19.9262 8.69648 19.925 8.70143L19.5769 8.61803ZM20.6623 5.6243L19.9288 8.68583L19.5807 8.60245L20.3142 5.54091L20.6623 5.6243ZM20.3141 5.54139C20.3149 5.53816 20.3156 5.53496 20.3164 5.53177L20.6644 5.61515C20.6638 5.61806 20.6631 5.62095 20.6624 5.62383L20.3141 5.54139ZM20.3164 5.53177C20.3172 5.52856 20.3179 5.52536 20.3187 5.52216L20.6665 5.60647C20.6658 5.60937 20.6651 5.61226 20.6644 5.61515L20.3164 5.53177ZM20.6699 5.59248L20.6666 5.60601L20.3186 5.52262L20.3218 5.50909L20.6699 5.59248ZM20.4541 5.72479L20.454 5.72477L20.5377 5.3768L20.5378 5.37681L20.4541 5.72479ZM20.3222 5.50796C20.8028 3.55841 22.768 2.35968 24.7236 2.82823L24.6402 3.17628C22.876 2.7536 21.1033 3.83498 20.6697 5.59364L20.3222 5.50796ZM24.7236 2.82823C26.6792 3.29678 27.8878 5.2559 27.4328 7.2116L27.0842 7.1305C27.4946 5.36629 26.4044 3.59896 24.6402 3.17628L24.7236 2.82823ZM27.2173 7.3452L27.2172 7.34518L27.2997 6.99692L27.2998 6.99694L27.2173 7.3452ZM26.3244 10.302L27.0845 7.12937L27.4326 7.21276L26.6724 10.3854L26.3244 10.302ZM26.5395 10.1695L26.5401 10.1697L26.4567 10.5177L26.4561 10.5176L26.5395 10.1695ZM26.671 10.3885C26.1723 12.3126 24.2217 13.4903 22.2805 13.0252L22.3639 12.6772C24.115 13.0968 25.8747 12.0344 26.3246 10.2987L26.671 10.3885ZM22.2805 13.0252C20.3392 12.5601 19.1342 10.6264 19.5615 8.68509L19.911 8.76203C19.5255 10.5132 20.6127 12.2576 22.3639 12.6772L22.2805 13.0252ZM19.7775 8.54942L19.778 8.54955L19.6945 8.89757L19.694 8.89744L19.7775 8.54942ZM19.9213 8.71704L19.9098 8.76512L19.5617 8.68173L19.5732 8.63365L19.9213 8.71704Z" fill="black" mask="url(#path-9-inside-1_0_1)"/>
</g>
<path d="M22.7847 9.82852C22.5983 9.72413 21.8452 9.59141 21.8452 9.89562C21.8452 10.2759 22.3597 10.2535 22.3597 10.2535C22.3597 10.2535 21.7761 10.1121 21.8899 10.5219C22.0018 10.9246 22.3149 10.768 22.4044 10.7233" stroke="black" stroke-width="0.178947"/>
<path d="M23.0977 3.89208C22.4415 3.86226 21.2903 3.4984 21.9345 2.28156" stroke="black" stroke-width="0.178947"/>
<path d="M24.2607 3.8026C23.6046 3.77278 22.4534 3.40892 23.0976 2.19208" stroke="black" stroke-width="0.178947"/>
<path d="M25.8716 4.29473C25.2154 4.26491 24.0642 3.90105 24.7084 2.6842" stroke="black" stroke-width="0.178947"/>
<path d="M22.2026 5.91486C21.9491 5.79556 21.3526 5.6867 20.9947 6.20564" stroke="black" stroke-width="0.178947" stroke-linecap="round"/>
<path d="M25.5768 7.04698C25.4842 6.78256 25.1437 6.28086 24.5227 6.38941" stroke="black" stroke-width="0.178947" stroke-linecap="round"/>
<path d="M25.4652 6.77572L25.7402 6.53296" stroke="black" stroke-width="0.178947" stroke-linecap="round"/>
<path d="M21.1305 5.957L20.8555 5.71423" stroke="black" stroke-width="0.178947" stroke-linecap="round"/>
<path d="M25.1769 6.52325L25.3579 6.20416" stroke="black" stroke-width="0.178947" stroke-linecap="round"/>
<path d="M21.4642 5.794L21.2832 5.47491" stroke="black" stroke-width="0.178947" stroke-linecap="round"/>
<path d="M24.8156 6.36159L24.9141 6.00818" stroke="black" stroke-width="0.178947" stroke-linecap="round"/>
<path d="M21.8699 5.76656L21.7715 5.41315" stroke="black" stroke-width="0.178947" stroke-linecap="round"/>
<path d="M22.5924 7.80664C22.5833 7.97853 22.5165 8.34711 22.3218 8.44625C22.0785 8.57018 22.2692 8.98099 22.7247 8.95464" stroke="black" stroke-width="0.178947"/>
<path d="M29.9801 15.3765C29.9869 15.359 29.9963 15.3344 30.0077 15.3033C30.0331 15.2339 30.0684 15.1317 30.1076 15.0018C30.1862 14.7418 30.2807 14.371 30.3436 13.9291C30.4697 13.0443 30.4687 11.8799 29.968 10.7475C29.8871 10.5645 29.7859 10.3764 29.6763 10.1726C29.2527 9.38514 28.7026 8.36239 28.7026 6.48408C28.7026 5.11555 28.0384 3.96301 27.0604 3.15053C26.0816 2.33731 24.7924 1.86845 23.5542 1.86845C22.8773 1.86845 22.3331 1.946 21.8957 2.21024C21.4609 2.47285 21.1187 2.92812 20.8644 3.71256C20.8385 3.79239 20.7531 3.84118 20.6695 3.81408C20.1633 3.64985 19.3957 3.81563 18.7479 4.23858C18.1028 4.65968 17.6019 5.31921 17.6019 6.11412C17.6019 6.80422 17.7201 7.27054 17.8353 7.72467L17.8353 7.72468C17.9748 8.27447 18.1096 8.80549 18.0145 9.67063C17.9828 9.95915 17.9183 10.1638 17.8282 10.3334C17.7395 10.5003 17.6277 10.6295 17.5099 10.7657L17.5072 10.7688C17.2266 11.0933 17.0988 11.3602 17.0576 11.595C17.0165 11.8292 17.0595 12.0416 17.1396 12.262C17.1798 12.3727 17.2288 12.4839 17.2806 12.601L17.2851 12.6112C17.3353 12.7244 17.3878 12.8431 17.435 12.9679C17.5327 13.2261 17.6089 13.514 17.6013 13.8552C17.5949 14.1449 17.5435 14.3435 17.4667 14.4937C17.3908 14.6422 17.2927 14.7372 17.2072 14.82L17.2049 14.8222C17.127 14.8978 17.0621 14.9614 17.0141 15.0506C16.9712 15.1303 16.9394 15.2354 16.934 15.3933C18.0081 16.0321 19.0712 16.2962 19.8695 16.4C20.2737 16.4526 20.6096 16.4641 20.844 16.4624C20.9612 16.4616 21.0529 16.4575 21.115 16.4536C21.1369 16.4523 21.1551 16.4509 21.1694 16.4498C21.4446 16.0298 21.6953 15.3368 21.8895 14.6251C22.0784 13.933 22.211 13.2341 22.2609 12.7725C20.6023 12.293 19.5628 10.5812 19.8127 8.81513C19.813 8.81187 19.8134 8.80964 19.8134 8.80959L19.8147 8.80071L19.8192 8.77531C19.823 8.75438 19.8286 8.72488 19.8358 8.68792C19.8504 8.61396 19.8717 8.50952 19.899 8.38308C19.9536 8.13024 20.0321 7.78884 20.1279 7.42672C20.2236 7.06483 20.337 6.68096 20.4613 6.34364C20.5848 6.00879 20.7222 5.71092 20.8688 5.52768L20.8821 5.51111L20.9015 5.50266C20.988 5.46516 21.0777 5.42338 21.1714 5.37976C21.6157 5.17289 22.1485 4.92482 22.8385 4.89754C23.6784 4.86432 24.7421 5.15592 26.1799 6.19874L26.2704 6.26436L26.1834 6.33451C25.4709 6.90866 25.3169 7.67022 25.3498 8.3167C25.3749 8.81008 25.5086 9.22981 25.584 9.43961C25.636 9.36371 25.6691 9.26829 25.6939 9.15623C25.7111 9.07877 25.7237 8.99714 25.7368 8.91166L25.7389 8.89812C25.7526 8.80891 25.7673 8.71584 25.7886 8.62597C25.8311 8.44653 25.9031 8.26718 26.0629 8.14017C26.223 8.01289 26.4564 7.94983 26.7963 7.9688L26.8959 7.97436L26.8751 8.07197L26.367 10.457L26.3674 10.4571L26.3649 10.4649C26.1834 11.0403 25.8721 11.5391 25.4741 11.9328L25.4594 11.9576C25.4465 11.9798 25.4278 12.0122 25.4053 12.0529C25.3601 12.1343 25.2993 12.2488 25.237 12.3805C25.1111 12.6466 24.9838 12.9733 24.9593 13.2401C24.9344 13.5109 25.0024 13.8602 25.0804 14.1488C25.119 14.2916 25.1592 14.4169 25.1898 14.5064C25.1961 14.5251 25.2021 14.5422 25.2075 14.5575C25.4326 14.4499 25.6337 14.4579 25.806 14.5582C25.9923 14.6667 26.1287 14.8741 26.2303 15.1047C26.4159 15.5262 26.5051 16.0728 26.5463 16.412C27.6589 16.1568 28.518 15.8977 29.1026 15.7009C29.4029 15.5998 29.6308 15.515 29.7833 15.4557C29.8595 15.4261 29.9169 15.4028 29.9551 15.387L29.9801 15.3765Z" fill="#AC6651" stroke="black" stroke-width="0.170977"/>
<path d="M26.4305 8.06046C26.5347 8.02614 26.6473 8.00787 26.7624 8.00787C27.2319 8.00787 27.6124 8.29866 27.5677 8.83551C27.5211 9.39472 27.1872 9.59603 26.7177 9.59603C26.6655 9.59603 26.6143 9.59144 26.5647 9.58266C26.5106 9.57308 26.4582 9.55849 26.4081 9.53943" stroke="black" stroke-width="0.357895"/>
<path d="M26.3858 9.53054C26.4877 9.57271 26.5999 9.59603 26.7177 9.59603C27.1872 9.59603 27.5211 9.39472 27.5677 8.83551C27.6124 8.29866 27.2319 8.00787 26.7624 8.00787C26.6221 8.00787 26.4857 8.035 26.3634 8.08525L26.3858 9.53054Z" fill="#F9C9B6"/>
<path d="M26.5645 8.38814C26.7434 8.30613 27.1371 8.26288 27.2803 8.74604" stroke="black" stroke-width="0.178947"/>
<path d="M27.0342 8.41052C26.9372 8.49254 26.7523 8.74605 26.7881 9.10394" stroke="black" stroke-width="0.178947"/>
<circle r="0.178947" transform="matrix(-1 0 0 1 26.9251 9.34667)" fill="white"/>
<circle r="0.0447368" transform="matrix(-1 0 0 1 26.8801 9.30194)" fill="#FFEDEF"/>
<circle r="0.536842" transform="matrix(-0.994007 -0.109312 -0.109312 0.994007 24.4189 7.18228)" fill="#D2EFF3"/>
<ellipse rx="0.402632" ry="0.603947" transform="matrix(-0.993014 -0.117996 -0.117996 0.993014 24.3614 7.5922)" fill="black"/>
<circle r="0.536842" transform="matrix(-0.994007 -0.109312 -0.109312 0.994007 21.5654 6.79629)" fill="#D2EFF3"/>
<ellipse rx="0.402632" ry="0.603947" transform="matrix(-0.994007 -0.109312 -0.109312 0.994007 21.4981 7.14482)" fill="black"/>
<circle r="1.16316" transform="matrix(-1 0 0 1 21.263 7.24525)" stroke="black" stroke-width="0.178947"/>
<circle r="1.16316" transform="matrix(-1 0 0 1 24.2601 7.6479)" stroke="black" stroke-width="0.178947"/>
<path d="M22.3814 7.5584C22.3814 7.46348 22.4191 7.37244 22.4862 7.30533C22.5533 7.23821 22.6444 7.2005 22.7393 7.2005C22.8342 7.2005 22.9252 7.23821 22.9923 7.30533C23.0595 7.37244 23.0972 7.46348 23.0972 7.5584" stroke="black" stroke-width="0.178947"/>
<path d="M25.4011 7.73737L26.7432 7.98342" stroke="black" stroke-width="0.178947"/>
<path d="M17.7392 16.9814H28.706C28.0531 16.02 27.125 15.4028 25.6254 15.1172C25.5595 15.1047 25.4706 15.1086 25.3604 15.13C25.2512 15.1512 25.127 15.1884 24.9933 15.2375C24.7257 15.3357 24.4271 15.4789 24.1466 15.6272C23.8664 15.7753 23.6063 15.9274 23.4161 16.0426C23.321 16.1002 23.2435 16.1484 23.1899 16.1823C23.163 16.1992 23.1422 16.2125 23.1281 16.2216L23.112 16.2319L23.108 16.2345L23.107 16.2351L23.1068 16.2353L23.1067 16.2353L23.0579 16.1603L23.1067 16.2353L23.0377 16.2802L22.9872 16.2151L22.9872 16.2151L22.9872 16.2151L22.9872 16.2151L22.9868 16.2146L22.9852 16.2126L22.9785 16.2041C22.9725 16.1966 22.9635 16.1855 22.9517 16.1712C22.9281 16.1428 22.8934 16.1019 22.8493 16.0531C22.7612 15.9552 22.6363 15.8259 22.4894 15.6995C22.342 15.5728 22.1747 15.451 22.0016 15.3662C21.8281 15.2811 21.655 15.2362 21.4932 15.2544C19.8022 15.4448 18.555 16.0639 17.7392 16.9814Z" fill="#F178B6" stroke="black" stroke-width="0.178947"/>
<path d="M26.0993 15.1775L25.8956 14.5444C25.8853 14.5124 25.8448 14.5023 25.8202 14.5247C25.2317 15.0612 24.4927 15.0506 24.2279 15.0263C24.1892 15.0227 24.1611 15.0665 24.1819 15.0995L24.6976 15.9163C24.7071 15.9314 24.7241 15.9396 24.7416 15.9365C24.9007 15.9088 25.6897 15.7477 26.0927 15.2173C26.1013 15.206 26.1036 15.1911 26.0993 15.1775Z" fill="#E0DDFF" stroke="black" stroke-width="0.178947"/>
<path d="M20.8356 15.1728L21.2948 14.5276C21.313 14.5019 21.3512 14.5021 21.3703 14.5266C21.5952 14.8142 21.9763 14.9515 22.1262 14.9964C22.1565 15.0054 22.1695 15.042 22.1511 15.068L21.6193 15.8184C21.6099 15.8317 21.5942 15.8388 21.5785 15.8351C21.4926 15.8147 21.1998 15.7123 20.836 15.2253C20.8246 15.2099 20.8243 15.1885 20.8356 15.1728Z" fill="#E0DDFF" stroke="black" stroke-width="0.178947"/>
<path d="M23.8046 15.7725L24.168 15.0474L24.4507 15.5533L23.8046 15.7725Z" fill="black" stroke="black" stroke-width="0.178947" stroke-linejoin="round"/>
<path d="M22.5328 15.7388L22.1694 15.0137L21.8867 15.5196L22.5328 15.7388Z" fill="black" stroke="black" stroke-width="0.178947" stroke-linejoin="round"/>
<path d="M25.3792 14.4067L25.8638 14.5078L25.46 14.727L25.3792 14.4067Z" fill="black" stroke="black" stroke-width="0.178947" stroke-linejoin="round"/>
<path d="M21.7654 14.4067L21.3213 14.5078L21.6039 14.727L21.7654 14.4067Z" fill="black" stroke="black" stroke-width="0.178947" stroke-linejoin="round"/>
</g>
<g filter="url(#filter0_b_0_1)">
<circle cx="8.5" cy="8.5" r="8.5" fill="#FCDDEC"/>
<mask id="mask3_0_1" style="mask-type:alpha" maskUnits="userSpaceOnUse" x="0" y="0" width="17" height="17">
<circle cx="8.5" cy="8.5" r="8.5" fill="#FFEDEF"/>
</mask>
<g mask="url(#mask3_0_1)">
<g clip-path="url(#clip1_0_1)">
<path d="M10.916 16.2171C10.2718 15.3224 9.76778 13.5926 9.70813 12.7277L6.64365 11.4079L5.36865 16.2171H10.916Z" fill="#F9C9B6" stroke="black" stroke-width="0.178947"/>
<mask id="mask4_0_1" style="mask-type:alpha" maskUnits="userSpaceOnUse" x="5" y="11" width="6" height="6">
<path d="M10.916 16.6645C10.2718 15.7698 9.76778 13.5926 9.70813 12.7277L6.64365 11.4079L5.36865 16.6645H10.916Z" fill="#F9C9B6"/>
</mask>
<g mask="url(#mask4_0_1)">
<g style="mix-blend-mode:multiply">
<ellipse cx="9.57356" cy="11.3184" rx="2.63947" ry="2.41579" fill="black"/>
</g>
</g>
<mask id="path-51-inside-2_0_1" fill="white">
<path fill-rule="evenodd" clip-rule="evenodd" d="M12.2532 8.67532C12.252 8.67013 12.2508 8.66493 12.2495 8.65973C12.2483 8.65454 12.247 8.64935 12.2458 8.64416L11.5123 5.58277C11.5115 5.57967 11.5108 5.57656 11.5101 5.57346C11.5093 5.57035 11.5086 5.56725 11.5078 5.56415L11.5046 5.55078L11.5046 5.5508C11.0474 3.69669 9.17848 2.55664 7.31858 3.00225C5.45868 3.44787 4.30928 5.31109 4.74201 7.17104L4.74193 7.17107L5.50206 10.3437L5.50269 10.3436C5.97702 12.1735 7.83214 13.2936 9.67833 12.8512C11.5245 12.4089 12.6706 10.5698 12.2642 8.72356L12.2648 8.72343L12.2532 8.67532Z"/>
</mask>
<path fill-rule="evenodd" clip-rule="evenodd" d="M12.2532 8.67532C12.252 8.67013 12.2508 8.66493 12.2495 8.65973C12.2483 8.65454 12.247 8.64935 12.2458 8.64416L11.5123 5.58277C11.5115 5.57967 11.5108 5.57656 11.5101 5.57346C11.5093 5.57035 11.5086 5.56725 11.5078 5.56415L11.5046 5.55078L11.5046 5.5508C11.0474 3.69669 9.17848 2.55664 7.31858 3.00225C5.45868 3.44787 4.30928 5.31109 4.74201 7.17104L4.74193 7.17107L5.50206 10.3437L5.50269 10.3436C5.97702 12.1735 7.83214 13.2936 9.67833 12.8512C11.5245 12.4089 12.6706 10.5698 12.2642 8.72356L12.2648 8.72343L12.2532 8.67532Z" fill="#F9C9B6"/>
<path d="M12.2532 8.67532L12.079 8.71623L12.0792 8.71702L12.2532 8.67532ZM12.2458 8.64416L12.0717 8.68585L12.0719 8.68663L12.2458 8.64416ZM11.5123 5.58277L11.3381 5.62401L11.3383 5.62447L11.5123 5.58277ZM11.5101 5.57346L11.6841 5.53177L11.6841 5.53177L11.5101 5.57346ZM11.5078 5.56415L11.3338 5.60585L11.3339 5.60632L11.5078 5.56415ZM11.5046 5.55078L11.6786 5.50909L11.637 5.33525L11.4631 5.37672L11.5046 5.55078ZM11.5046 5.5508L11.3308 5.59364L11.3733 5.76606L11.5461 5.72487L11.5046 5.5508ZM7.31858 3.00225L7.27688 2.82823L7.27688 2.82823L7.31858 3.00225ZM4.74201 7.17104L4.78411 7.34497L4.9565 7.30325L4.9163 7.13049L4.74201 7.17104ZM4.74193 7.17107L4.69983 6.99714L4.52631 7.03914L4.5679 7.21276L4.74193 7.17107ZM5.50206 10.3437L5.32804 10.3854L5.36974 10.5594L5.54377 10.5177L5.50206 10.3437ZM5.50269 10.3436L5.67591 10.2987L5.63183 10.1286L5.46098 10.1695L5.50269 10.3436ZM9.67833 12.8512L9.63663 12.6772L9.63663 12.6772L9.67833 12.8512ZM12.2642 8.72356L12.2225 8.54955L12.0517 8.59051L12.0894 8.76203L12.2642 8.72356ZM12.2648 8.72343L12.3065 8.89744L12.4805 8.85571L12.4388 8.68173L12.2648 8.72343ZM12.4274 8.63442C12.4262 8.62895 12.4249 8.6235 12.4236 8.61804L12.0755 8.70143C12.0767 8.70636 12.0779 8.7113 12.079 8.71623L12.4274 8.63442ZM12.4236 8.61804C12.4222 8.61258 12.4209 8.60712 12.4196 8.60169L12.0719 8.68663C12.0731 8.69157 12.0743 8.6965 12.0755 8.70143L12.4236 8.61804ZM11.3383 5.62447L12.0717 8.68585L12.4198 8.60247L11.6863 5.54108L11.3383 5.62447ZM11.6864 5.54154C11.6856 5.53828 11.6849 5.53503 11.6841 5.53177L11.336 5.61515C11.3367 5.6181 11.3375 5.62105 11.3381 5.62401L11.6864 5.54154ZM11.6841 5.53177C11.6833 5.52851 11.6825 5.52525 11.6817 5.52198L11.3339 5.60632C11.3346 5.60925 11.3353 5.6122 11.336 5.61515L11.6841 5.53177ZM11.3306 5.59248L11.3338 5.60585L11.6818 5.52245L11.6786 5.50909L11.3306 5.59248ZM11.5461 5.72487L11.5461 5.72485L11.4631 5.37672L11.463 5.37673L11.5461 5.72487ZM11.6783 5.50796C11.1976 3.55841 9.23251 2.35968 7.27688 2.82823L7.36027 3.17628C9.12444 2.7536 10.8972 3.83498 11.3308 5.59364L11.6783 5.50796ZM7.27688 2.82823C5.32125 3.29678 4.11271 5.2559 4.56772 7.2116L4.9163 7.13049C4.50585 5.36629 5.5961 3.59896 7.36027 3.17628L7.27688 2.82823ZM4.78402 7.34499L4.78411 7.34497L4.69992 6.99712L4.69983 6.99714L4.78402 7.34499ZM5.67609 10.302L4.91595 7.12937L4.5679 7.21276L5.32804 10.3854L5.67609 10.302ZM5.46098 10.1695L5.46036 10.1697L5.54377 10.5177L5.54439 10.5176L5.46098 10.1695ZM5.32946 10.3885C5.82823 12.3126 7.7788 13.4903 9.72002 13.0252L9.63663 12.6772C7.88547 13.0968 6.12582 12.0344 5.67591 10.2987L5.32946 10.3885ZM9.72002 13.0252C11.6612 12.5601 12.8663 10.6264 12.439 8.68509L12.0894 8.76203C12.4749 10.5132 11.3878 12.2576 9.63663 12.6772L9.72002 13.0252ZM12.223 8.54941L12.2225 8.54955L12.3059 8.89757L12.3065 8.89744L12.223 8.54941ZM12.0792 8.71702L12.0907 8.76512L12.4388 8.68173L12.4273 8.63363L12.0792 8.71702Z" fill="black" mask="url(#path-51-inside-2_0_1)"/>
</g>
<ellipse cx="7.39198" cy="7.46018" rx="0.402632" ry="0.603947" transform="rotate(-6.77646 7.39198 7.46018)" fill="black"/>
<ellipse cx="10.2553" cy="7.0128" rx="0.402632" ry="0.603947" transform="rotate(-6.27568 10.2553 7.0128)" fill="black"/>
<path d="M9.79736 5.91479C10.0509 5.7955 10.6474 5.68664 11.0053 6.20558" stroke="black" stroke-width="0.178947" stroke-linecap="round"/>
<path d="M6.42318 7.04692C6.51582 6.7825 6.85633 6.2808 7.4773 6.38935" stroke="black" stroke-width="0.178947" stroke-linecap="round"/>
<path d="M11.6736 3.21247C11.3013 4.99734 6.90114 5.24799 6.01437 5.24799C3.68705 5.51313 4.80413 8.30648 5.23148 9.69931C4.89595 9.74405 4.94069 10.1467 3.64332 6.94799C2.60543 4.38905 5.5449 2.8294 7.72877 2.29998C9.91264 1.77055 10.7485 1.02509 10.7485 1.02509C11.6736 1.40526 11.8945 2.15319 11.6736 3.21247Z" fill="black"/>
<path d="M11.448 6.50286L10.7404 4.11214L11.1894 3.70313C11.6706 5.36233 11.6926 6.32579 11.448 6.50286Z" fill="black"/>
<path d="M6.21837 8.99211C5.96784 7.77527 5.33855 7.99299 4.921 8.05264L4.47363 6.08421L6.28925 5.7042C6.32289 5.69346 6.35888 5.68585 6.39732 5.68158L6.28925 5.7042C5.47722 5.96338 6.03748 8.04348 6.71047 8.90263L6.21837 8.99211Z" fill="black"/>
<path d="M3.75722 4.40043C4.15294 4.20117 4.62028 4.31651 4.80449 4.39909L4.2779 5.06479C4.41369 4.84752 3.98736 4.53136 3.75722 4.40043Z" fill="black"/>
<path d="M3.08691 5.16713C3.60586 4.86292 4.10841 4.96582 4.29481 5.05529L4.09349 5.74873C4.03981 5.37294 3.40007 5.20442 3.08691 5.16713Z" fill="black"/>
<path d="M9.40808 7.8067C9.41718 7.9786 9.48404 8.34718 9.67868 8.44632C9.92197 8.57024 9.73124 8.98105 9.27577 8.9547" stroke="black" stroke-width="0.178947"/>
<path d="M5.86078 8.15325V8.10317L5.8181 8.07698C5.65106 7.97448 5.44793 7.9184 5.23804 7.9184C4.98571 7.9184 4.74948 7.99658 4.5812 8.15528C4.41104 8.31577 4.31924 8.55042 4.34361 8.84294C4.36737 9.12798 4.46306 9.33778 4.62178 9.47718C4.60875 9.52188 4.6049 9.57007 4.61094 9.62078C4.62835 9.767 4.70227 9.87235 4.8165 9.93727C4.92538 9.99915 5.06474 10.021 5.21317 10.021C5.45829 10.021 5.67323 9.88918 5.83689 9.71285L5.86078 9.6871V9.65198V8.15325Z" stroke="black" stroke-width="0.178947"/>
<path fill-rule="evenodd" clip-rule="evenodd" d="M6.12806 8.8561C6.13118 8.82728 6.13278 8.79802 6.13278 8.7684C6.13278 8.31131 5.70748 8.00787 5.23804 8.00787C4.7686 8.00787 4.38804 8.29866 4.43278 8.83551C4.45767 9.13425 4.56458 9.33086 4.73035 9.44919C4.70404 9.49499 4.69252 9.54878 4.69984 9.61019C4.72798 9.84648 4.92969 9.93154 5.21323 9.93154C5.71043 9.93154 6.10374 9.30216 6.12806 8.8561Z" fill="#F9C9B6"/>
<path d="M5.436 8.38814C5.25706 8.30613 4.86337 8.26288 4.72021 8.74604" stroke="black" stroke-width="0.178947"/>
<path d="M4.96631 8.41052C5.06324 8.49254 5.24815 8.74605 5.21236 9.10394" stroke="black" stroke-width="0.178947"/>
<path d="M8.48985 16.0864L8.54483 16.0158L8.48986 16.0864L8.56688 16.1464L8.61993 16.0645L8.61994 16.0645L8.62002 16.0643L8.62044 16.0637L8.62228 16.0609L8.62982 16.0495C8.63655 16.0395 8.64663 16.0246 8.65979 16.0055C8.68613 15.9675 8.7248 15.913 8.7738 15.8479C8.87193 15.7175 9.01082 15.5453 9.17435 15.3769C9.33831 15.2081 9.52447 15.0458 9.71683 14.9329C9.90994 14.8196 10.1006 14.7609 10.2776 14.7848C12.1762 15.0408 13.5733 15.8817 14.4802 17.1343H2.2537C2.98289 15.8216 4.02005 14.9861 5.70157 14.6027C5.77323 14.5864 5.87065 14.5913 5.99247 14.6197C6.11303 14.6477 6.25049 14.697 6.39873 14.7621C6.69519 14.8924 7.02613 15.0825 7.33712 15.2793C7.64765 15.4759 7.93599 15.6777 8.14684 15.8306C8.25222 15.907 8.33812 15.9711 8.39761 16.016C8.42736 16.0385 8.4505 16.0561 8.46616 16.0682L8.48394 16.0819L8.48842 16.0853L8.48953 16.0862L8.48979 16.0864L8.48985 16.0864Z" fill="#7879F1" stroke="black" stroke-width="0.178947"/>
<path d="M5.17231 14.7223L5.40345 13.8619C5.41281 13.8271 5.45789 13.8172 5.48223 13.8438C6.14716 14.5715 6.98626 14.5429 7.26477 14.5095C7.30257 14.505 7.33218 14.5464 7.31442 14.5801L6.72581 15.6964C6.71679 15.7135 6.69833 15.7229 6.67939 15.719C6.50274 15.6822 5.62258 15.467 5.1775 14.7573C5.17098 14.7469 5.16913 14.7341 5.17231 14.7223Z" fill="#A5A6F6" stroke="black" stroke-width="0.178947"/>
<path d="M11.0141 14.7176L10.496 13.8461C10.4784 13.8165 10.4351 13.817 10.4164 13.8458C10.1597 14.2411 9.71704 14.4232 9.56225 14.477C9.53441 14.4867 9.52167 14.5198 9.53668 14.5451L10.1407 15.5658C10.1498 15.581 10.1668 15.5893 10.1838 15.5844C10.2793 15.5572 10.607 15.4202 11.0135 14.7642C11.0223 14.7501 11.0226 14.7319 11.0141 14.7176Z" fill="#A5A6F6" stroke="black" stroke-width="0.178947"/>
<path d="M7.71725 15.5014L7.31462 14.5396L7.00146 15.2106L7.71725 15.5014Z" fill="black" stroke="black" stroke-width="0.178947" stroke-linejoin="round"/>
<path d="M9.1265 15.4567L9.52913 14.4948L9.84229 15.1659L9.1265 15.4567Z" fill="black" stroke="black" stroke-width="0.178947" stroke-linejoin="round"/>
<path d="M5.97239 13.6896L5.43555 13.8238L5.88292 14.1146L5.97239 13.6896Z" fill="black" stroke="black" stroke-width="0.178947" stroke-linejoin="round"/>
<path d="M9.97616 13.6896L10.4683 13.8238L10.1551 14.1146L9.97616 13.6896Z" fill="black" stroke="black" stroke-width="0.178947" stroke-linejoin="round"/>
<path d="M9.21582 9.82852C9.40222 9.72413 10.1553 9.59141 10.1553 9.89562C10.1553 10.2759 9.64082 10.2535 9.64082 10.2535C9.64082 10.2535 10.2244 10.1121 10.1106 10.5219C9.99872 10.9246 9.68556 10.768 9.59608 10.7233" stroke="black" stroke-width="0.178947"/>
</g>
</g>
<defs>
<filter id="filter0_b_0_1" x="-0.0488506" y="-0.0488506" width="17.0977" height="17.0977" filterUnits="userSpaceOnUse" color-interpolation-filters="sRGB">
<feFlood flood-opacity="0" result="BackgroundImageFix"/>
<feGaussianBlur in="BackgroundImage" stdDeviation="0.0244253"/>
<feComposite in2="SourceAlpha" operator="in" result="effect1_backgroundBlur_0_1"/>
<feBlend mode="normal" in="SourceGraphic" in2="effect1_backgroundBlur_0_1" result="shape"/>
</filter>
<clipPath id="clip0_0_1">
<rect width="8.94737" height="14.3158" fill="white" transform="matrix(-1 0 0 1 27.9741 1.92371)"/>
</clipPath>
<clipPath id="clip1_0_1">
<rect width="8.94737" height="14.3158" fill="white" transform="translate(4.02637 1.92371)"/>
</clipPath>
</defs>
</svg>
